<?xml version="1.0" encoding="UTF-8" standalone="no"?>
<svg
   width="100"
   height="100"
   viewBox="0 0 100 100"
   version="1.1"
   id="svg3"
   sodipodi:docname="graph-paper-white.svg"
   inkscape:version="1.3.2 (091e20e, 2023-11-25, custom)"
   xmlns:inkscape="http://www.inkscape.org/namespaces/inkscape"
   xmlns:sodipodi="http://sodipodi.sourceforge.net/DTD/sodipodi-0.dtd"
   xmlns="http://www.w3.org/2000/svg"
   xmlns:svg="http://www.w3.org/2000/svg">
  <sodipodi:namedview
     id="namedview1"
     pagecolor="#000000"
     bordercolor="#000000"
     borderopacity="0.25"
     inkscape:showpageshadow="2"
     inkscape:pageopacity="0.0"
     inkscape:pagecheckerboard="0"
     inkscape:deskcolor="#d1d1d1"
     inkscape:zoom="5.5012908"
     inkscape:cx="43.44435"
     inkscape:cy="31.901604"
     inkscape:window-width="1366"
     inkscape:window-height="697"
     inkscape:window-x="-8"
     inkscape:window-y="-8"
     inkscape:window-maximized="1"
     inkscape:current-layer="g3" />
  <defs
     id="defs3" />
  <g
     fill-rule="evenodd"
     id="g3">
    <g
       fill="#000000"
       id="g2"
       style="fill:#ffffff;fill-opacity:0.508876"
       transform="translate(-5.5112361,-5.5071417)">
      <path
         opacity="0.5"
         d="m 96,95 h 4 v 1 h -4 v 4 h -1 v -4 h -9 v 4 h -1 v -4 h -9 v 4 h -1 v -4 h -9 v 4 h -1 v -4 h -9 v 4 h -1 v -4 h -9 v 4 h -1 v -4 h -9 v 4 h -1 v -4 h -9 v 4 h -1 v -4 h -9 v 4 H 15 V 96 H 0 V 95 H 15 V 86 H 0 V 85 H 15 V 76 H 0 V 75 H 15 V 66 H 0 V 65 H 15 V 56 H 0 V 55 H 15 V 46 H 0 V 45 H 15 V 36 H 0 V 35 H 15 V 26 H 0 V 25 H 15 V 16 H 0 V 15 H 15 V 0 h 1 v 15 h 9 V 0 h 1 v 15 h 9 V 0 h 1 v 15 h 9 V 0 h 1 v 15 h 9 V 0 h 1 v 15 h 9 V 0 h 1 v 15 h 9 V 0 h 1 v 15 h 9 V 0 h 1 v 15 h 9 V 0 h 1 v 15 h 4 v 1 h -4 v 9 h 4 v 1 h -4 v 9 h 4 v 1 h -4 v 9 h 4 v 1 h -4 v 9 h 4 v 1 h -4 v 9 h 4 v 1 h -4 v 9 h 4 v 1 h -4 v 9 h 4 v 1 h -4 z m -1,0 v -9 h -9 v 9 z m -10,0 v -9 h -9 v 9 z m -10,0 v -9 h -9 v 9 z m -10,0 v -9 h -9 v 9 z m -10,0 v -9 h -9 v 9 z m -10,0 v -9 h -9 v 9 z m -10,0 v -9 h -9 v 9 z m -10,0 v -9 h -9 v 9 z M 16,85 h 9 v -9 h -9 z m 10,0 h 9 v -9 h -9 z m 10,0 h 9 v -9 h -9 z m 10,0 h 9 v -9 h -9 z m 10,0 h 9 v -9 h -9 z m 10,0 h 9 v -9 h -9 z m 10,0 h 9 v -9 h -9 z m 10,0 h 9 v -9 h -9 z m 9,-10 v -9 h -9 v 9 z m -10,0 v -9 h -9 v 9 z m -10,0 v -9 h -9 v 9 z m -10,0 v -9 h -9 v 9 z m -10,0 v -9 h -9 v 9 z m -10,0 v -9 h -9 v 9 z m -10,0 v -9 h -9 v 9 z m -10,0 v -9 h -9 v 9 z M 16,65 h 9 v -9 h -9 z m 10,0 h 9 v -9 h -9 z m 10,0 h 9 v -9 h -9 z m 10,0 h 9 v -9 h -9 z m 10,0 h 9 v -9 h -9 z m 10,0 h 9 v -9 h -9 z m 10,0 h 9 v -9 h -9 z m 10,0 h 9 v -9 h -9 z m 9,-10 v -9 h -9 v 9 z m -10,0 v -9 h -9 v 9 z m -10,0 v -9 h -9 v 9 z m -10,0 v -9 h -9 v 9 z m -10,0 v -9 h -9 v 9 z m -10,0 v -9 h -9 v 9 z m -10,0 v -9 h -9 v 9 z m -10,0 v -9 h -9 v 9 z M 16,45 h 9 v -9 h -9 z m 10,0 h 9 v -9 h -9 z m 10,0 h 9 v -9 h -9 z m 10,0 h 9 v -9 h -9 z m 10,0 h 9 v -9 h -9 z m 10,0 h 9 v -9 h -9 z m 10,0 h 9 v -9 h -9 z m 10,0 h 9 v -9 h -9 z m 9,-10 v -9 h -9 v 9 z m -10,0 v -9 h -9 v 9 z m -10,0 v -9 h -9 v 9 z m -10,0 v -9 h -9 v 9 z m -10,0 v -9 h -9 v 9 z m -10,0 v -9 h -9 v 9 z m -10,0 v -9 h -9 v 9 z m -10,0 v -9 h -9 v 9 z M 16,25 h 9 v -9 h -9 z m 10,0 h 9 v -9 h -9 z m 10,0 h 9 v -9 h -9 z m 10,0 h 9 v -9 h -9 z m 10,0 h 9 v -9 h -9 z m 10,0 h 9 v -9 h -9 z m 10,0 h 9 v -9 h -9 z m 10,0 h 9 v -9 h -9 z"
         id="path1"
         style="display:none;fill:#ffffff;fill-opacity:0.508876" />
      <path
         d="M 6,5 V 0 H 5 V 5 H 0 v 1 h 5 v 94 H 6 V 6 h 94 V 5 Z"
         id="path2"
         style="display:inline;fill:#ffffff;fill-opacity:0.508876" />
      <path
         style="font-variation-settings:'wght' 700;fill:#ffffff;fill-opacity:0.508876;stroke:#ffffff;stroke-width:2.00558;stroke-dasharray:none;stroke-opacity:0.687805"
         d="M 5.4957423,0.00176735 V 10.53594"
         id="path3" />
      <path
         style="font-variation-settings:'wght' 700;display:inline;fill:#ffffff;fill-opacity:0.508876;stroke:#ffffff;stroke-width:2;stroke-dasharray:none;stroke-opacity:0.687805"
         d="M 0.00176735,5.4996485 H 10.86295"
         id="path4" />
    </g>
    <path
       style="font-variation-settings:'wght' 700;display:inline;fill:#f9f9f9;fill-opacity:1;stroke:#ffffff;stroke-width:1;stroke-dasharray:none;stroke-opacity:0.139053"
       d="M 19.938635,-0.0428496 V 100.02142"
       id="path5" />
    <path
       style="font-variation-settings:'wght' 700;fill:#f9f9f9;fill-opacity:1;stroke:#ffffff;stroke-width:1;stroke-dasharray:none;stroke-opacity:0.139053"
       d="M 39.925782,-0.2356516 V 99.635814"
       id="path6" />
    <path
       style="font-variation-settings:'wght' 700;fill:#f9f9f9;fill-opacity:1;stroke:#ffffff;stroke-width:1;stroke-dasharray:none;stroke-opacity:0.139053"
       d="M 60.041463,99.892879 V -0.299919"
       id="path7" />
    <path
       style="font-variation-settings:'wght' 700;fill:#f9f9f9;fill-opacity:1;stroke:#ffffff;stroke-width:1;stroke-dasharray:none;stroke-opacity:0.139053"
       d="M 80.105035,-0.0538761 V 99.796479"
       id="path8" />
    <path
       style="font-variation-settings:'wght' 700;fill:#f9f9f9;fill-opacity:1;stroke:#ffffff;stroke-width:1;stroke-dasharray:none;stroke-opacity:0.139053"
       d="M 0.37629603,19.94273 H 100.63336"
       id="path9" />
    <path
       style="font-variation-settings:'wght' 700;fill:#f9f9f9;fill-opacity:1;stroke:#ffffff;stroke-width:1;stroke-dasharray:none;stroke-opacity:0.139053"
       d="M 100.63336,39.994144 H 0.24776133"
       id="path10" />
    <path
       style="font-variation-settings:'wght' 700;display:inline;fill:#f9f9f9;fill-opacity:1;stroke:#ffffff;stroke-width:1;stroke-dasharray:none;stroke-opacity:0.139053"
       d="M 0.11922663,60.045558 H 100.89043"
       id="path11" />
    <path
       style="font-variation-settings:'wght' 700;display:inline;fill:#f9f9f9;fill-opacity:1;stroke:#ffffff;stroke-width:1;stroke-dasharray:none;stroke-opacity:0.139053"
       d="M 100.63336,80.096972 H -0.00930807"
       id="path12" />
    <path
       d="m 0.48996761,189.49211 v 5 h -1 v -5 H -5.5100324 v -1 h 5.00000001 V 94.492107 h 1 V 188.49211 H 94.489966 v 1 z"
       id="path2-9"
       style="display:inline;fill:#ffffff;fill-opacity:0.508876" />
    <path
       d="m 188.48828,0.4921905 v 4.9999999 h 1 V 0.4921905 h 5 v -1 h -5 V -94.507812 h -1 V -0.5078095 H 94.488282 v 1 z"
       id="path2-9-5"
       style="display:inline;fill:#ffffff;fill-opacity:0.508876" />
    <path
       style="font-variation-settings:'wght' 700;fill:#ffffff;fill-opacity:0.508876;stroke:#ffffff;stroke-width:2.00558;stroke-dasharray:none;stroke-opacity:0.687805"
       d="M 99.96273,94.453125 V 104.98729"
       id="path3-1" />
    <path
       style="font-variation-settings:'wght' 700;display:inline;fill:#ffffff;fill-opacity:0.508876;stroke:#ffffff;stroke-width:2;stroke-dasharray:none;stroke-opacity:0.687805"
       d="m 94.46875,99.95101 h 10.86118"
       id="path4-5" />
  </g>
</svg>
