<?xml version="1.0" encoding="UTF-8" standalone="no"?>
<svg
   id="Capa_1"
   viewBox="0 0 331.89 303.69"
   version="1.1"
   width="331.89001"
   height="303.69"
   xmlns="http://www.w3.org/2000/svg"
   xmlns:svg="http://www.w3.org/2000/svg"
   xmlns:c2pa="http://c2pa.org/manifest">

  <path
     d="m 4.56,2.9 116.37,115.16 1.94,93.61 L 331.89,0 H 301.52 L 204.65,93.28 110.49,0 H 2.39 C 2.71,1.06 3.37,2.11 4.56,2.9 Z M 0,0 v 303.69 h 122.34 c -1.97,0 -3.74,-1.2 -4.46,-3.04 L 1.57,5.84 C 0.74,3.76 1.18,1.59 2.39,0 Z"
     id="path1" />
  <path
     d="m 230.84,136.88 h -13.3 c -5.14,0 -7.55,1.21 -11.18,4.84 l -84.32,84.12 -1.25,33.46 113.37,-115.16 c 0.91,-0.91 1.51,-2.12 1.51,-3.63 0,-1.81 -1.51,-3.63 -4.84,-3.63 z"
     id="path2" />
  <path
     d="m 230.84,180.72 h -13.3 c -5.14,0 -7.55,1.21 -11.18,4.84 l -84.32,84.12 -1.25,33.46 113.37,-115.16 c 0.91,-0.91 1.51,-2.12 1.51,-3.63 0,-1.81 -1.51,-3.63 -4.84,-3.63 z"
     id="path3" />
</svg>
