<?xml version="1.0" encoding="UTF-8" standalone="no"?>
<!-- Created with Inkscape (http://www.inkscape.org/) -->

<svg
   width="58.208344mm"
   height="15.563665mm"
   viewBox="0 0 58.208342 15.563666"
   version="1.1"
   id="svg1"
   sodipodi:docname="button-full.svg"
   inkscape:export-filename="button.svg"
   inkscape:export-xdpi="96"
   inkscape:export-ydpi="96"
   xmlns:inkscape="http://www.inkscape.org/namespaces/inkscape"
   xmlns:sodipodi="http://sodipodi.sourceforge.net/DTD/sodipodi-0.dtd"
   xmlns="http://www.w3.org/2000/svg"
   xmlns:svg="http://www.w3.org/2000/svg">
  <sodipodi:namedview
     id="namedview1"
     pagecolor="#505050"
     bordercolor="#eeeeee"
     borderopacity="1"
     inkscape:showpageshadow="0"
     inkscape:pageopacity="0"
     inkscape:pagecheckerboard="0"
     inkscape:deskcolor="#505050"
     inkscape:document-units="mm" />
  <defs
     id="defs1" />
  <g
     id="layer1"
     transform="translate(-99.255715,-140.24444)">
    <path
       style="font-variation-settings:'wght' 900;fill:none;fill-opacity:1;stroke:#000000;stroke-width:0.31891;stroke-opacity:1;paint-order:stroke fill markers"
       d="m 99.416036,155.64261 h 51.440394 l 6.44817,-6.77284 v -8.46587 h -51.97045 l -5.91898,6.77285 v 8.63136"
       id="path1"
       sodipodi:nodetypes="ccccccc" />
    <g
       id="g14"
       style="display:inline"
       transform="matrix(1.1249026,0,0,1.1249026,-17.048041,-18.402465)">
      <path
         style="fill:none;stroke:#000000;stroke-width:0.298163;stroke-dasharray:none;stroke-dashoffset:0;stroke-opacity:1;paint-order:stroke fill markers"
         d="m 144.9528,144.09811 v -0.38234"
         id="path12-1" />
      <path
         style="fill:none;stroke:#000000;stroke-width:0.298163;stroke-dasharray:none;stroke-dashoffset:0;stroke-opacity:1;paint-order:stroke fill markers"
         d="m 141.10968,147.95115 h -0.38235"
         id="path12-7" />
      <path
         style="fill:none;stroke:#000000;stroke-width:0.298163;stroke-dasharray:none;stroke-dashoffset:0;stroke-opacity:1;paint-order:stroke fill markers"
         d="m 144.95055,151.80083 v 0.38234"
         id="path12-1-8" />
      <path
         style="fill:none;stroke:#000000;stroke-width:0.298163;stroke-dasharray:none;stroke-dashoffset:0;stroke-opacity:1;paint-order:stroke fill markers"
         d="m 148.79367,147.94778 h 0.38235"
         id="path12" />
    </g>
    <g
       id="g15"
       style="display:inline"
       transform="matrix(1.1249026,0,0,1.1249026,-17.048041,-18.402465)">
      <path
         style="fill:none;stroke:#000000;stroke-width:0.328756;stroke-dasharray:none;stroke-dashoffset:0;stroke-opacity:1;paint-order:stroke fill markers"
         d="m 144.9528,145.7112 v -0.94626"
         id="path13-8" />
      <path
         style="fill:none;stroke:#000000;stroke-width:0.328756;stroke-dasharray:none;stroke-dashoffset:0;stroke-opacity:1;paint-order:stroke fill markers"
         d="m 147.1806,147.94778 h 0.94626"
         id="path13" />
      <path
         style="fill:none;stroke:#000000;stroke-width:0.328756;stroke-dasharray:none;stroke-dashoffset:0;stroke-opacity:1;paint-order:stroke fill markers"
         d="M 142.72277,147.95115 H 141.7765"
         id="path13-1" />
      <path
         style="fill:none;stroke:#000000;stroke-width:0.328756;stroke-dasharray:none;stroke-dashoffset:0;stroke-opacity:1;paint-order:stroke fill markers"
         d="M 144.95055,150.18774 V 151.134"
         id="path13-8-6" />
    </g>
    <g
       id="g13"
       style="display:inline"
       transform="matrix(1.1249026,0,0,1.1249026,-17.048041,-18.402465)">
      <path
         style="fill:none;stroke:#000000;stroke-width:0.382354;stroke-dasharray:none;stroke-dashoffset:0;stroke-opacity:1;paint-order:stroke fill markers"
         d="m 144.9528,147.37424 v 1.14709"
         id="path11" />
      <path
         style="fill:none;stroke:#000000;stroke-width:0.29617;stroke-dasharray:none;stroke-dashoffset:0;stroke-opacity:1;paint-order:stroke fill markers"
         d="m 144.37926,147.94778 h 1.14709"
         id="path11-9" />
    </g>
    <path
       d="m 107.24311,150.85396 c 1.09149,0 1.80516,-0.6477 1.9311,-1.70321 h -0.54575 c -0.096,0.77364 -0.58173,1.22943 -1.38535,1.22943 -0.95356,0 -1.45133,-0.70167 -1.45133,-1.7092 0,-1.00154 0.49777,-1.70321 1.45133,-1.70321 0.80362,0 1.2894,0.44979 1.38535,1.22343 h 0.54575 c -0.12594,-1.04952 -0.83961,-1.69722 -1.9311,-1.69722 -1.25942,0 -2.00307,0.94157 -2.00307,2.177 0,1.24142 0.74365,2.18298 2.00307,2.18298 z m 2.62678,-2.18298 c 0,1.24142 0.74365,2.18298 1.99707,2.18298 1.25342,0 1.99108,-0.94156 1.99108,-2.18298 0,-1.23543 -0.73766,-2.177 -1.99108,-2.177 -1.25342,0 -1.99707,0.94157 -1.99707,2.177 z m 0.55174,0 c 0,-0.98955 0.47378,-1.70321 1.44533,-1.70321 0.97155,0 1.44533,0.71366 1.44533,1.70321 0,0.99553 -0.47378,1.7092 -1.44533,1.7092 -0.97155,0 -1.44533,-0.71367 -1.44533,-1.7092 z m 4.21605,2.11701 h 0.54574 v -3.70028 l -0.096,-0.37783 h 0.15593 l 2.00906,4.07811 h 1.0915 v -4.22804 h -0.53975 v 3.70029 l 0.09,0.37782 h -0.14993 l -2.01507,-4.07811 h -1.09149 z m 7.97629,-1.12747 c 0,-0.55774 -0.33584,-0.95356 -1.01952,-1.12748 l -1.16946,-0.29386 c -0.46179,-0.11995 -0.6417,-0.34784 -0.6417,-0.6477 0,-0.4318 0.32984,-0.64171 0.94756,-0.64171 0.79763,0 1.19944,0.33585 1.19944,1.00754 h 0.55774 c 0,-0.91158 -0.60572,-1.46333 -1.75718,-1.46333 -0.97155,0 -1.49931,0.38982 -1.49931,1.12148 0,0.50377 0.27587,0.88759 0.94157,1.06151 l 1.18145,0.30586 c 0.49177,0.12594 0.70767,0.37783 0.70767,0.70767 0,0.46779 -0.34184,0.70168 -1.0735,0.70168 -0.92957,0 -1.40335,-0.38382 -1.40335,-1.19345 h -0.55175 c 0,1.06151 0.6597,1.65523 1.9431,1.65523 1.12748,0 1.63724,-0.43779 1.63724,-1.19344 z m 0.56974,-0.4438 c 0,1.05551 0.53375,1.63724 1.69721,1.63724 1.16346,0 1.70921,-0.58173 1.70921,-1.63724 v -2.65677 h -0.54575 v 2.54283 c 0,0.8456 -0.28187,1.2774 -1.16346,1.2774 -0.88159,0 -1.15147,-0.4318 -1.15147,-1.2774 v -2.54283 h -0.54574 z m 4.59387,1.57127 h 2.28494 v -0.46778 h -2.11702 v -3.76026 h -0.54575 v 3.85022 c 0,0.24589 0.13794,0.37782 0.37783,0.37782 z m 1.89512,-4.22804 v 0.46779 h 1.45732 v 3.76025 h 0.54575 v -3.76025 h 1.45133 v -0.46779 z m 3.28647,4.22804 h 0.56374 l 0.50977,-1.61925 h 1.7092 l 0.50977,1.61925 h 0.56973 l -1.34937,-4.22804 h -1.16946 z m 0.92358,-5.10963 0.10195,0.40781 1.88313,-0.47977 -0.10196,-0.40781 z m 0.29986,3.0226 0.6297,-1.99108 h 0.14994 l 0.6297,1.99108 z"
       id="text15"
       style="font-size:5.99722px;font-family:'PP Neue Machina';-inkscape-font-specification:'PP Neue Machina, Normal';letter-spacing:0px;word-spacing:-0.00264583px;stroke:#000000;stroke-width:0.264583;paint-order:stroke fill markers"
       aria-label="CONSULTÃ" />
  </g>
</svg>
