<svg
   width="57.679173mm"
   height="15.563665mm"
   viewBox="0 0 57.679171 15.563666"
   version="1.1"
   id="svg1"
   xml:space="preserve"
   xmlns="http://www.w3.org/2000/svg"
   xmlns:svg="http://www.w3.org/2000/svg">
  <defs id="defs1" />
  <path
     class="btn-brd"
     d="m 0.160321,15.398165 h 51.440394 l 5.919,-5.71451 v -9.5242 H 5.549265 l -5.38981,5.71452 v 9.68969"
     id="path1" />
  <g
     id="g15"
     class="btn-crh-in"
     transform="matrix(1.0363262,0,0,1.0363262,-104.52279,-145.54207)">
    <path
       d="m 144.9528,145.7112 v -0.94626"
       id="path13-8" />
    <path
       d="m 147.1806,147.94778 h 0.94626"
       id="path13" />
    <path
       d="M 142.72277,147.95115 H 141.7765"
       id="path13-1" />
    <path
       d="M 144.95055,150.18774 V 151.134"
       id="path13-8-6" />
  </g>
  <g
     id="g14"
     class="btn-crh-out"
     transform="matrix(1.0363262,0,0,1.0363262,-104.52279,-145.54207)">
    <path
       d="m 144.9528,143.58749 v -0.38234"
       id="path12-1" />
    <path
       d="m 140.59906,147.95115 h -0.38235"
       id="path12-7" />
    <path
       d="m 144.95055,152.31145 v 0.38234"
       id="path12-1-8" />
    <path
       d="m 149.30429,147.94778 h 0.38235"
       id="path12" />
  </g>
  <g
     id="g13"
     class="btn-crh-cnt"
     transform="matrix(1.0363262,0,0,1.0363262,-104.52279,-145.54207)">
    <path
       d="m 144.9528,147.37424 v 1.14709"
       id="path11" />
    <path
       d="m 144.37926,147.94778 h 1.14709"
       id="path11-9" />
  </g>
  <path
     d="m 9.574285,9.736465 c 0.83467,0 1.38042,-0.4953 1.47672,-1.30245 h -0.41733 c -0.0734,0.59161 -0.44485,0.94015 -1.05939,0.94015 -0.72919,0 -1.10984,-0.53657 -1.10984,-1.30704 0,-0.76588 0.38065,-1.30246 1.10984,-1.30246 0.61454,0 0.98601,0.34396 1.05939,0.93557 h 0.41733 c -0.0963,-0.80257 -0.64205,-1.29787 -1.47672,-1.29787 -0.96309,0 -1.53176,0.72002 -1.53176,1.66476 0,0.94932 0.56867,1.66934 1.53176,1.66934 z m 2.00871,-1.66934 c 0,0.94932 0.56868,1.66934 1.52718,1.66934 0.95849,0 1.52258,-0.72002 1.52258,-1.66934 0,-0.94474 -0.56409,-1.66476 -1.52258,-1.66476 -0.9585,0 -1.52718,0.72002 -1.52718,1.66476 z m 0.42192,0 c 0,-0.75671 0.36231,-1.30246 1.10526,-1.30246 0.74294,0 1.10525,0.54575 1.10525,1.30246 0,0.76129 -0.36231,1.30704 -1.10525,1.30704 -0.74295,0 -1.10526,-0.54575 -1.10526,-1.30704 z m 3.22404,1.6189 h 0.41733 v -2.82963 l -0.0734,-0.28893 h 0.11924 l 1.53634,3.11856 h 0.83467 v -3.23321 h -0.41275 v 2.82963 l 0.0688,0.28892 h -0.11466 l -1.54093,-3.11855 h -0.83467 z m 6.09952,-0.86219 c 0,-0.42651 -0.25682,-0.72919 -0.77964,-0.86219 l -0.89429,-0.22472 c -0.35313,-0.0917 -0.49071,-0.266 -0.49071,-0.4953 0,-0.3302 0.25223,-0.49071 0.7246,-0.49071 0.60995,0 0.91722,0.25682 0.91722,0.77046 h 0.42651 c 0,-0.69709 -0.46319,-1.11901 -1.34373,-1.11901 -0.74295,0 -1.14653,0.2981 -1.14653,0.8576 0,0.38524 0.21097,0.67875 0.72002,0.81174 l 0.90347,0.2339 c 0.37606,0.0963 0.54116,0.28892 0.54116,0.54116 0,0.35771 -0.26141,0.53657 -0.82092,0.53657 -0.71084,0 -1.07314,-0.29351 -1.07314,-0.91263 h -0.42193 c 0,0.81174 0.50448,1.26576 1.4859,1.26576 0.86219,0 1.25201,-0.33478 1.25201,-0.91263 z m 0.43568,-0.33938 c 0,0.80716 0.40816,1.25201 1.29787,1.25201 0.8897,0 1.30704,-0.44485 1.30704,-1.25201 v -2.03164 h -0.41734 v 1.94451 c 0,0.64664 -0.21554,0.97684 -0.8897,0.97684 -0.67416,0 -0.88054,-0.3302 -0.88054,-0.97684 v -1.94451 h -0.41733 z m 3.51296,1.20157 h 1.74731 v -0.35772 h -1.6189 v -2.87549 h -0.41734 v 2.94428 c 0,0.18803 0.10548,0.28893 0.28893,0.28893 z m 1.44921,-3.23321 v 0.35771 h 1.11443 v 2.8755 h 0.41733 v -2.8755 h 1.10984 v -0.35771 z m 2.51319,3.23321 h 0.43109 l 0.38982,-1.23825 h 1.30704 l 0.38982,1.23825 h 0.43568 l -1.03187,-3.23321 h -0.89429 z m 0.70626,-3.90737 0.078,0.31186 1.44004,-0.36689 -0.078,-0.31186 z m 0.2293,2.3114 0.48155,-1.52259 h 0.11465 l 0.48154,1.52259 z"
     id="text15"
     class="btn-txt"
     aria-label="CONSULTÃ" />
</svg>
