<?xml version="1.0" encoding="UTF-8" standalone="no"?>
<!-- Uploaded to: SVG Repo, www.svgrepo.com, Generator: SVG Repo Mixer Tools -->

<svg
   fill="#000000"
   height="800px"
   width="800px"
   version="1.1"
   id="Layer_1"
   viewBox="0 0 512.035 512.035"
   xml:space="preserve"
   sodipodi:docname="right-arrow-next-svgrepo-com.svg"
   inkscape:version="1.3.2 (091e20e, 2023-11-25, custom)"
   xmlns:inkscape="http://www.inkscape.org/namespaces/inkscape"
   xmlns:sodipodi="http://sodipodi.sourceforge.net/DTD/sodipodi-0.dtd"
   xmlns="http://www.w3.org/2000/svg"
   xmlns:svg="http://www.w3.org/2000/svg"><defs
   id="defs2" /><sodipodi:namedview
   id="namedview2"
   pagecolor="#505050"
   bordercolor="#eeeeee"
   borderopacity="1"
   inkscape:showpageshadow="0"
   inkscape:pageopacity="0"
   inkscape:pagecheckerboard="0"
   inkscape:deskcolor="#505050"
   inkscape:zoom="1.0075"
   inkscape:cx="400"
   inkscape:cy="399.50372"
   inkscape:window-width="1920"
   inkscape:window-height="1017"
   inkscape:window-x="-8"
   inkscape:window-y="-8"
   inkscape:window-maximized="1"
   inkscape:current-layer="Layer_1" />
<g
   id="g2"
   style="fill:none;fill-opacity:1">
	<g
   id="g1"
   style="fill:none;fill-opacity:1">
		<path
   d="M509.475,250.044L262.008,2.577c-1.707-1.707-3.413-2.56-5.973-2.56H8.568c-3.413,0-6.827,1.707-7.68,5.12    c-1.707,3.413-0.853,6.827,1.707,9.387l241.493,241.493L2.595,497.511c-2.56,2.56-2.56,5.973-1.707,9.387    c0.853,3.413,4.267,5.12,7.68,5.12h247.467c2.56,0,4.267-0.853,5.973-2.56l247.467-247.467    C512.888,258.577,512.888,253.457,509.475,250.044z M252.621,494.951H29.048l232.96-232.96c3.413-3.413,3.413-8.533,0-11.947    L29.048,17.084h223.573l238.933,238.933L252.621,494.951z"
   id="path1"
   style="fill:none;fill-opacity:1" />
	</g>
</g>
</svg>
